<?xml version="1.0" encoding="utf-8"?>
<!DOCTYPE svg PUBLIC "-//W3C//DTD SVG 20010904//EN" "http://www.w3.org/TR/2001/REC-SVG-20010904/DTD/svg10.dtd">
<svg version="1.0" xmlns="http://www.w3.org/2000/svg" width="502pt" height="502pt" viewBox="0 0 502 502" style="" preserveAspectRatio="xMidYMid meet">
<g fill="#000000FF" stroke="#000000FF">
<path d="M 288.000 232.500 C 288.000 233.663 289.320 234.000 293.883 234.000 C 299.139 234.000 299.831 234.240 300.370 236.250 C 301.229 239.458 301.141 241.500 300.013 244.466 C 299.073 246.938 298.912 246.988 296.654 245.509 C 293.428 243.395 291.000 244.516 291.000 248.118 C 291.000 252.193 305.540 267.627 307.694 265.839 C 308.867 264.865 308.054 263.599 302.944 258.444 C 297.518 252.969 296.991 252.105 298.545 251.235 C 299.708 250.584 301.535 250.585 303.900 251.238 C 305.874 251.783 309.855 251.985 312.745 251.687 L 318.000 251.145 318.000 259.072 C 318.000 266.333 318.168 267.000 320.000 267.000 C 321.919 267.000 322.000 266.333 322.000 250.590 L 322.000 234.179 339.250 234.340 L 356.500 234.500 356.804 238.140 C 357.104 241.735 357.043 241.800 351.804 243.404 C 347.161 244.825 346.011 244.853 342.577 243.633 C 338.121 242.050 333.286 242.926 331.250 245.687 C 329.576 247.957 329.667 253.456 331.435 256.875 C 333.750 261.350 340.901 267.327 342.427 266.060 C 343.425 265.232 342.633 263.919 338.855 260.141 C 334.887 256.173 334.000 254.642 334.000 251.765 C 334.000 246.983 336.063 245.414 340.800 246.592 C 344.218 247.443 344.476 247.760 344.186 250.757 C 343.775 254.999 346.348 255.162 348.485 251.030 C 350.085 247.935 352.758 246.000 355.434 246.000 C 356.756 246.000 357.000 247.637 357.000 256.500 C 357.000 266.333 357.127 267.000 359.000 267.000 C 360.919 267.000 361.000 266.333 361.000 250.500 L 361.000 234.000 366.000 234.000 L 371.000 234.000 371.000 250.500 C 371.000 266.264 371.088 267.000 372.975 267.000 C 374.850 267.000 374.964 266.173 375.225 250.750 L 375.500 234.500 388.500 234.500 L 401.500 234.500 401.816 237.250 C 402.129 239.970 402.069 240.000 396.316 240.015 C 393.117 240.023 389.375 240.596 388.000 241.288 C 385.105 242.745 384.183 247.106 386.038 250.571 C 387.020 252.406 386.943 253.243 385.620 255.132 C 382.445 259.665 383.709 263.877 390.298 270.722 C 393.436 273.983 394.665 274.693 395.694 273.839 C 396.760 272.954 396.127 271.775 392.513 267.910 C 387.507 262.559 386.645 258.536 389.876 255.612 C 392.726 253.033 398.481 252.430 401.481 254.395 C 404.571 256.420 404.848 260.476 402.000 262.000 C 399.639 263.264 399.328 266.000 401.545 266.000 C 404.118 266.000 408.003 261.340 407.968 258.295 C 407.905 252.752 403.381 249.725 395.761 250.130 C 390.311 250.419 388.072 248.860 389.309 245.636 C 389.819 244.309 391.456 244.000 397.969 244.000 L 406.000 244.000 406.000 239.000 C 406.000 234.111 406.067 234.000 409.000 234.000 C 411.000 234.000 412.000 233.500 412.000 232.500 C 412.000 231.183 404.444 231.000 350.000 231.000 C 295.556 231.000 288.000 231.183 288.000 232.500 M 317.500 240.983 L 317.500 247.466 313.500 248.123 C 311.300 248.484 308.026 248.544 306.225 248.255 C 303.389 247.801 303.055 247.447 303.725 245.615 C 304.151 244.452 304.454 241.343 304.397 238.708 L 304.294 233.915 310.897 234.208 L 317.500 234.500 317.500 240.983 "/></g>
<g fill="#000000FF" stroke="#000000FF">
<path d="M 333.002 61.996 C 332.052 64.288 332.024 66.037 332.880 69.439 C 333.496 71.885 334.000 76.750 334.000 80.252 C 334.000 85.753 334.475 87.407 337.500 92.430 C 339.425 95.627 341.000 98.480 341.000 98.770 C 341.000 99.060 343.025 101.757 345.500 104.764 C 351.915 112.556 351.553 114.123 344.500 109.090 C 342.300 107.521 341.400 107.083 342.500 108.118 C 345.427 110.873 343.128 110.457 333.582 106.505 C 319.187 100.547 314.990 99.793 303.500 101.100 C 295.957 101.958 291.903 103.007 287.000 105.369 C 279.182 109.135 280.234 109.443 296.500 108.154 C 303.073 107.633 305.387 107.225 302.250 107.141 C 299.363 107.063 297.000 106.561 297.000 106.025 C 297.000 105.434 296.112 105.377 294.750 105.878 C 287.124 108.688 284.004 107.649 290.628 104.507 C 293.098 103.334 295.463 102.978 298.045 103.391 C 300.321 103.755 301.973 103.581 302.182 102.955 C 302.374 102.377 305.867 101.834 310.015 101.738 C 318.617 101.537 323.600 102.954 338.250 109.767 C 349.567 115.030 351.225 117.591 342.750 116.716 L 337.500 116.174 342.000 117.136 C 356.984 120.341 364.329 123.706 372.360 131.046 C 378.254 136.433 380.311 140.122 374.866 135.541 C 366.868 128.811 362.412 127.860 345.939 129.365 C 336.499 130.228 333.477 131.329 336.000 132.985 C 336.825 133.526 338.850 133.982 340.500 133.998 C 342.150 134.014 347.325 135.365 352.000 137.000 C 361.241 140.232 365.293 140.999 357.953 138.127 C 349.623 134.867 347.140 133.582 347.631 132.788 C 347.899 132.355 347.165 132.000 346.000 132.000 C 344.835 132.000 344.119 131.616 344.409 131.147 C 344.699 130.677 348.391 130.032 352.613 129.713 C 361.711 129.025 365.536 130.221 374.500 136.554 C 379.999 140.440 388.674 149.396 388.374 150.878 C 388.305 151.220 389.086 152.565 390.110 153.868 C 391.135 155.170 391.705 156.668 391.378 157.197 C 391.051 157.727 391.692 158.796 392.803 159.575 C 393.914 160.353 397.900 165.762 401.662 171.595 C 405.423 177.429 408.394 181.724 408.264 181.141 C 408.133 180.558 406.453 177.620 404.529 174.613 C 402.605 171.605 398.955 165.208 396.417 160.397 C 393.880 155.586 390.748 149.977 389.458 147.934 C 386.974 143.999 383.911 137.475 382.212 132.500 C 380.806 128.383 379.462 125.235 379.757 126.750 C 379.890 127.438 379.561 128.000 379.025 128.000 C 378.391 128.000 378.391 128.898 379.025 130.565 C 380.414 134.219 380.255 134.541 378.047 132.542 C 376.972 131.570 374.422 126.551 372.378 121.389 C 370.335 116.227 368.504 112.162 368.309 112.357 C 368.115 112.552 369.364 116.402 371.087 120.913 C 372.809 125.424 373.910 129.424 373.532 129.801 C 372.709 130.625 366.304 123.734 363.500 119.007 C 362.400 117.153 361.916 116.614 362.424 117.811 C 363.878 121.232 362.387 121.464 360.414 118.124 C 359.434 116.465 358.293 115.319 357.877 115.576 C 355.881 116.810 339.970 96.443 336.434 88.128 C 335.645 86.273 334.989 82.223 334.976 79.128 C 334.962 76.033 334.503 71.559 333.956 69.186 C 333.409 66.813 333.209 64.470 333.513 63.980 C 334.362 62.605 336.850 63.953 337.553 66.168 C 337.899 67.258 338.437 67.896 338.748 67.586 C 339.446 66.888 335.975 59.000 334.969 59.000 C 334.570 59.000 333.684 60.348 333.002 61.996 "/></g>
<g fill="#000000FF" stroke="#000000FF">
<path d="M 132.000 229.895 L 134.500 230.590 134.500 248.000 L 134.500 265.410 132.000 266.105 C 130.496 266.524 132.487 266.794 137.000 266.784 C 141.125 266.775 143.600 266.543 142.500 266.268 C 139.527 265.526 139.032 264.173 139.015 256.750 L 139.000 250.000 142.366 250.000 C 145.481 250.000 146.135 250.617 151.116 258.250 C 156.401 266.348 156.574 266.499 160.500 266.443 C 163.719 266.397 164.067 266.229 162.283 265.585 C 161.064 265.144 157.630 261.224 154.653 256.872 L 149.240 248.960 152.620 245.580 C 155.036 243.164 156.000 241.298 156.000 239.034 C 156.000 231.404 151.771 228.961 138.800 229.100 C 133.411 229.157 130.551 229.492 132.000 229.895 M 149.077 232.923 C 152.652 236.498 152.992 241.470 149.927 245.365 C 148.246 247.503 147.019 248.000 143.427 248.000 L 139.000 248.000 139.000 239.667 C 139.000 235.083 139.300 231.033 139.667 230.667 C 141.368 228.965 146.302 230.149 149.077 232.923 "/></g>
<g fill="#000000FF" stroke="#000000FF">
<path d="M 98.346 327.405 C 99.212 328.728 101.334 332.440 103.061 335.655 C 104.787 338.870 107.167 343.300 108.350 345.500 C 109.532 347.700 110.725 349.725 111.000 350.000 C 111.575 350.575 113.360 353.689 116.425 359.462 C 118.240 362.879 121.323 371.735 123.402 379.500 C 123.696 380.600 123.753 379.802 123.528 377.728 C 123.262 375.280 123.484 374.181 124.159 374.598 C 124.833 375.015 124.812 374.518 124.100 373.186 C 122.787 370.733 122.661 368.000 123.861 368.000 C 124.693 368.000 131.015 381.092 132.468 385.825 C 132.861 387.104 133.382 387.951 133.626 387.707 C 134.171 387.163 130.094 375.869 128.877 374.550 C 127.579 373.143 127.812 372.000 129.396 372.000 C 131.055 372.000 136.244 377.708 138.726 382.263 C 140.144 384.865 140.429 385.051 140.176 383.211 C 139.644 379.345 153.484 393.303 160.109 403.315 C 166.498 412.971 167.980 416.948 168.005 424.500 C 168.026 430.804 169.028 437.000 170.026 437.000 C 170.446 437.000 170.398 435.313 169.919 433.250 C 169.440 431.188 169.037 426.717 169.024 423.315 C 169.011 419.913 168.523 415.863 167.941 414.315 C 166.559 410.641 159.456 399.561 155.285 394.570 C 153.478 392.409 152.000 390.257 152.000 389.789 C 152.000 389.321 154.588 390.586 157.750 392.600 C 161.512 394.996 162.841 395.525 161.595 394.131 C 159.240 391.497 159.636 391.486 165.559 394.025 C 173.580 397.464 171.510 395.512 163.019 391.630 C 154.734 387.843 152.551 385.066 157.750 384.926 C 159.323 384.884 157.504 384.106 153.500 383.108 C 145.396 381.088 141.797 379.348 133.463 373.422 C 122.786 365.828 120.047 360.990 130.407 368.021 C 138.460 373.487 141.448 374.127 153.434 372.960 C 165.460 371.789 168.000 371.273 168.000 370.000 C 168.000 369.471 166.988 368.843 165.750 368.605 C 155.170 366.566 151.359 365.670 150.500 365.022 C 149.950 364.606 146.546 363.297 142.936 362.113 C 139.325 360.929 133.934 358.390 130.955 356.471 C 127.976 354.552 124.899 352.873 124.116 352.741 C 120.947 352.205 137.333 361.316 143.679 363.619 C 157.125 368.499 156.626 368.245 154.449 369.097 C 152.801 369.742 152.924 369.870 155.250 369.930 C 156.763 369.968 158.000 370.391 158.000 370.868 C 158.000 372.412 142.821 372.846 138.772 371.419 C 131.030 368.689 115.231 355.778 114.631 351.691 C 114.502 350.814 113.563 349.174 112.543 348.048 C 110.273 345.540 111.167 345.419 114.785 347.746 C 116.278 348.706 114.989 347.018 111.921 343.996 C 108.852 340.973 104.425 335.463 102.081 331.750 C 99.738 328.038 97.584 325.000 97.295 325.000 C 97.006 325.000 97.479 326.082 98.346 327.405 "/></g>
<g fill="#000000FF" stroke="#000000FF">
<path d="M 281.000 93.274 C 272.730 98.706 267.770 101.268 261.500 103.347 C 253.966 105.845 250.439 108.395 247.443 113.508 C 244.150 119.127 243.967 123.926 246.769 131.200 C 247.891 134.115 249.083 137.338 249.417 138.363 C 250.254 140.933 252.182 139.186 253.887 134.313 C 256.839 125.874 267.488 105.804 270.850 102.343 C 272.820 100.315 277.822 96.483 281.966 93.828 C 286.110 91.173 289.050 89.001 288.500 89.002 C 287.950 89.003 284.575 90.925 281.000 93.274 "/></g>
<g fill="#000000FF" stroke="#000000FF">
<path d="M 246.000 429.416 C 246.000 429.691 248.035 431.108 250.523 432.566 C 255.650 435.571 256.295 436.534 259.012 445.238 C 260.087 448.682 262.344 453.525 264.027 456.000 C 266.854 460.157 269.780 465.881 271.351 470.328 C 271.929 471.963 272.259 471.845 274.471 469.217 C 280.958 461.508 280.442 452.290 273.107 444.860 C 269.735 441.444 258.134 434.000 256.183 434.000 C 255.354 434.000 252.724 432.856 250.338 431.458 C 247.952 430.060 246.000 429.141 246.000 429.416 "/></g>
<g fill="#000000FF" stroke="#000000FF">
<path d="M 216.000 229.895 L 218.500 230.590 218.500 248.000 L 218.500 265.410 216.000 266.105 C 214.442 266.539 216.325 266.833 221.000 266.886 C 227.662 266.961 228.221 266.829 226.000 265.709 C 223.660 264.527 223.482 263.890 223.211 255.723 L 222.922 247.000 233.461 247.000 L 244.000 247.000 243.985 255.250 C 243.968 264.180 243.549 265.507 240.500 266.268 C 239.400 266.543 241.875 266.775 246.000 266.784 C 250.513 266.794 252.504 266.524 251.000 266.105 L 248.500 265.410 248.500 248.000 L 248.500 230.590 251.000 229.895 C 252.504 229.476 250.513 229.206 246.000 229.216 C 241.875 229.225 239.400 229.457 240.500 229.732 C 243.441 230.467 243.968 231.829 243.985 238.750 L 244.000 245.000 233.500 245.000 L 223.000 245.000 223.015 238.750 C 223.032 231.829 223.559 230.467 226.500 229.732 C 227.600 229.457 225.125 229.225 221.000 229.216 C 216.487 229.206 214.496 229.476 216.000 229.895 "/></g>
<g fill="#000000FF" stroke="#000000FF">
<path d="M 95.000 229.895 L 97.500 230.590 97.500 248.000 L 97.500 265.410 95.000 266.105 C 93.496 266.524 95.487 266.794 100.000 266.784 C 104.125 266.775 106.600 266.543 105.500 266.268 C 102.535 265.527 102.032 264.172 102.015 256.872 C 102.005 252.275 102.446 249.875 103.456 249.036 C 105.467 247.368 106.076 247.908 113.020 257.528 C 119.145 266.012 121.312 267.544 126.148 266.808 L 128.500 266.450 125.835 264.975 C 123.507 263.687 108.014 245.418 108.004 243.950 C 107.993 242.472 118.297 232.102 121.195 230.674 L 124.500 229.046 119.691 229.023 C 116.658 229.008 115.116 229.378 115.515 230.024 C 115.863 230.588 113.077 234.692 109.324 239.144 L 102.500 247.239 102.197 240.901 C 101.804 232.698 102.475 230.240 105.252 229.706 C 106.488 229.467 104.125 229.256 100.000 229.236 C 95.522 229.214 93.507 229.480 95.000 229.895 "/></g>
<g fill="#000000FF" stroke="#000000FF">
<path d="M 394.333 147.500 C 394.333 149.317 395.662 149.489 396.271 147.750 C 396.583 146.857 397.339 147.061 398.919 148.464 C 400.987 150.300 401.012 150.475 399.315 151.144 C 397.870 151.714 398.044 151.874 400.173 151.930 C 403.918 152.028 408.505 156.976 409.867 162.387 C 411.553 169.083 411.346 181.468 409.522 182.982 C 408.305 183.992 407.202 183.468 403.272 180.016 C 400.647 177.709 398.140 175.188 397.700 174.411 C 397.260 173.635 396.102 173.000 395.126 173.000 C 394.150 173.000 389.335 170.363 384.426 167.139 C 379.517 163.915 372.598 160.254 369.051 159.003 C 365.504 157.752 361.229 155.891 359.551 154.868 C 357.873 153.845 354.813 153.006 352.750 153.004 C 349.712 153.001 349.000 153.366 349.000 154.927 C 349.000 159.348 357.268 162.533 362.070 159.963 C 363.421 159.239 365.295 159.261 368.254 160.035 C 372.753 161.210 387.000 168.851 387.000 170.088 C 387.000 171.516 372.755 173.328 370.854 172.141 C 365.810 168.991 358.000 169.906 358.000 173.647 C 358.000 175.727 362.968 177.348 365.465 176.084 C 367.269 175.170 367.204 175.115 364.894 175.599 C 361.508 176.308 357.862 173.217 360.405 171.793 C 362.729 170.493 369.245 171.920 368.604 173.589 C 368.228 174.569 368.820 174.809 370.794 174.477 C 372.282 174.227 376.159 173.569 379.410 173.016 C 385.787 171.929 391.483 172.868 395.963 175.744 C 398.309 177.250 398.333 177.361 396.463 178.092 C 394.911 178.699 395.191 178.874 397.798 178.930 C 400.373 178.985 402.190 180.095 406.095 184.000 C 408.845 186.750 411.411 189.001 411.798 189.001 C 412.184 189.002 412.344 181.465 412.154 172.251 C 411.963 163.038 411.469 156.397 411.055 157.493 C 410.371 159.306 410.151 159.192 408.626 156.243 C 407.703 154.460 406.368 153.000 405.658 153.000 C 404.949 153.000 402.974 151.425 401.269 149.500 C 398.091 145.910 394.333 144.827 394.333 147.500 M 359.113 155.559 C 362.848 157.490 362.396 159.397 358.102 159.819 C 354.497 160.173 350.000 157.763 350.000 155.477 C 350.000 153.489 355.202 153.536 359.113 155.559 "/></g>
<g fill="#000000FF" stroke="#000000FF">
<path d="M 91.081 318.250 C 91.432 321.138 91.782 322.713 91.859 321.750 C 92.046 319.434 92.769 319.543 95.198 322.250 L 97.217 324.500 95.546 321.689 C 92.553 316.656 94.387 316.908 99.719 322.260 C 107.422 329.994 118.000 342.025 118.000 343.053 C 118.000 344.024 123.241 347.000 124.950 347.000 C 126.600 347.000 126.178 344.465 124.250 342.789 C 123.288 341.953 121.375 341.001 120.000 340.675 C 117.259 340.024 106.234 329.432 107.245 328.421 C 107.591 328.076 111.165 330.015 115.187 332.731 C 125.450 339.662 126.980 340.529 131.500 341.985 C 133.700 342.693 137.746 344.399 140.491 345.775 C 147.195 349.137 150.340 349.949 152.334 348.833 C 156.594 346.449 151.847 341.000 145.511 341.000 C 143.250 341.000 140.917 341.483 140.327 342.073 C 137.424 344.976 116.000 334.680 116.000 330.381 C 116.000 329.622 115.155 329.000 114.122 329.000 C 111.563 329.000 105.000 326.183 105.000 325.084 C 105.000 323.606 110.979 322.000 116.483 322.000 C 122.221 322.000 123.536 321.351 121.869 319.342 C 120.418 317.594 115.564 317.615 114.103 319.375 C 112.537 321.263 104.670 323.347 102.140 322.545 C 101.002 322.183 98.311 319.888 96.160 317.444 C 94.008 315.000 91.842 313.000 91.346 313.000 C 90.844 313.000 90.727 315.327 91.081 318.250 M 151.048 343.838 C 155.528 347.465 149.905 349.553 143.950 346.474 C 142.328 345.635 141.000 344.285 141.000 343.474 C 141.000 341.284 148.217 341.546 151.048 343.838 "/></g>
<g fill="#000000FF" stroke="#000000FF">
<path d="M 220.500 82.174 C 218.300 82.709 214.301 82.903 211.614 82.605 C 208.927 82.306 206.988 82.321 207.304 82.638 C 208.453 83.787 204.145 87.137 199.010 89.088 C 193.984 90.998 190.931 90.920 194.029 88.961 C 194.838 88.449 194.999 88.024 194.388 88.015 C 193.776 88.007 191.526 89.411 189.388 91.136 C 184.617 94.984 168.040 102.957 163.163 103.748 C 160.403 104.196 160.019 104.480 161.480 104.993 C 162.994 105.524 162.184 106.260 157.437 108.664 C 146.592 114.155 143.542 116.132 138.500 120.941 C 135.750 123.564 131.340 127.317 128.701 129.283 C 126.061 131.248 123.016 133.981 121.934 135.356 C 120.852 136.732 118.318 138.902 116.303 140.179 C 113.498 141.956 113.150 142.444 114.820 142.262 C 117.242 141.997 117.622 142.978 115.800 144.800 C 114.902 145.698 114.895 146.000 115.769 146.000 C 116.420 146.000 116.699 146.775 116.399 147.750 C 116.104 148.713 117.506 146.350 119.516 142.500 C 123.861 134.179 126.276 131.391 130.448 129.883 C 132.155 129.265 134.806 127.016 136.338 124.883 C 140.111 119.634 143.604 117.150 156.430 110.590 C 168.094 104.625 170.029 103.977 167.903 106.750 C 166.932 108.015 167.245 107.931 169.030 106.445 C 172.669 103.419 179.794 99.000 181.038 99.000 C 181.632 99.000 181.798 99.563 181.408 100.250 C 181.017 100.938 182.228 99.804 184.099 97.732 C 186.841 94.695 189.439 93.301 197.500 90.542 C 203.000 88.660 209.522 86.383 211.992 85.481 C 214.643 84.515 218.948 83.922 222.492 84.036 C 225.797 84.143 228.163 84.178 227.750 84.115 C 227.338 84.052 227.000 83.576 227.000 83.057 C 227.000 82.539 228.913 81.943 231.250 81.732 C 234.919 81.402 234.748 81.339 230.000 81.275 C 226.975 81.234 222.700 81.639 220.500 82.174 "/></g>
<g fill="#000000FF" stroke="#000000FF">
<path d="M 195.500 228.651 C 191.556 229.515 188.877 232.499 188.321 236.646 C 187.849 240.165 188.194 241.151 191.027 244.378 C 192.813 246.412 196.245 249.231 198.654 250.643 C 206.580 255.288 208.589 261.610 203.050 264.474 C 201.427 265.313 199.380 266.000 198.500 266.000 C 195.225 266.000 190.795 262.764 189.171 259.184 C 187.507 255.516 187.501 255.513 187.714 258.500 C 188.247 265.995 189.395 266.960 197.816 266.986 C 205.330 267.010 208.937 263.933 208.935 257.500 C 208.933 252.734 207.534 250.891 199.500 245.075 C 192.409 239.942 191.000 238.349 191.000 235.464 C 191.000 232.195 194.115 230.000 198.756 230.000 C 202.166 230.000 203.304 230.546 205.525 233.250 C 208.029 236.297 208.159 236.344 207.612 234.000 C 207.290 232.625 207.021 231.013 207.014 230.417 C 207.006 229.821 206.438 229.317 205.750 229.297 C 205.063 229.277 202.925 229.025 201.000 228.737 C 199.075 228.449 196.600 228.410 195.500 228.651 "/></g>
<g fill="#000000FF" stroke="#000000FF">
<path d="M 398.081 350.869 C 396.089 354.093 388.690 360.000 386.645 360.000 C 385.378 360.000 386.035 357.759 388.211 354.654 C 389.853 352.312 389.965 351.867 388.648 352.925 C 387.012 354.239 386.923 354.123 387.502 351.425 C 387.847 349.816 387.052 351.024 385.734 354.108 C 382.250 362.264 379.395 366.506 374.679 370.537 C 370.660 373.971 370.497 374.020 370.421 371.804 C 370.378 370.537 370.265 369.974 370.171 370.554 C 369.637 373.846 363.597 381.073 358.617 384.379 C 353.197 387.976 337.982 396.000 336.580 396.000 C 336.213 396.000 336.045 395.371 336.206 394.603 C 336.368 393.834 333.575 395.413 330.000 398.111 C 326.425 400.809 322.825 402.892 322.000 402.740 C 321.175 402.588 319.449 403.708 318.163 405.229 C 316.730 406.925 313.638 408.669 310.163 409.740 C 307.049 410.699 305.400 411.488 306.500 411.492 C 307.600 411.497 308.505 412.063 308.510 412.752 C 308.516 413.462 310.898 412.402 314.010 410.306 C 321.218 405.450 333.873 399.302 338.412 398.451 C 341.937 397.789 344.412 396.002 341.809 395.998 C 341.089 395.996 344.510 393.746 349.410 390.998 C 354.311 388.249 358.510 386.000 358.743 386.000 C 359.300 386.000 374.349 372.497 378.920 367.896 C 380.889 365.914 385.478 362.424 389.119 360.140 C 394.919 356.500 402.108 348.775 400.858 347.525 C 400.617 347.283 399.367 348.788 398.081 350.869 "/></g>
<g fill="#000000FF" stroke="#000000FF">
<path d="M 270.667 40.667 C 269.457 41.876 269.971 45.881 271.894 50.223 C 272.935 52.575 274.805 56.846 276.048 59.714 C 278.837 66.148 295.146 82.519 302.250 86.016 C 307.512 88.606 308.493 90.323 304.250 89.514 C 302.738 89.225 304.440 90.021 308.034 91.281 C 314.367 93.502 325.450 98.855 329.473 101.636 C 330.557 102.386 331.845 103.000 332.335 103.000 C 332.824 103.000 330.811 101.372 327.862 99.383 C 324.913 97.394 318.489 91.882 313.587 87.133 C 306.137 79.918 304.604 80.175 311.750 87.441 C 315.656 91.414 314.234 91.269 306.250 86.881 C 298.057 82.379 283.543 69.879 279.682 64.000 C 276.060 58.484 270.766 44.696 272.530 45.373 C 273.338 45.683 274.000 45.451 274.000 44.856 C 274.000 44.262 275.639 46.189 277.643 49.138 C 283.039 57.080 289.369 64.899 290.446 64.953 C 290.967 64.979 290.005 63.538 288.310 61.750 C 286.614 59.963 283.094 55.350 280.487 51.500 C 272.822 40.179 272.029 39.304 270.667 40.667 "/></g>
<g fill="#000000FF" stroke="#000000FF">
<path d="M 259.000 229.895 L 261.500 230.590 261.500 248.000 L 261.500 265.410 259.000 266.105 C 257.475 266.529 259.426 266.809 264.000 266.821 C 268.125 266.833 270.825 266.601 270.000 266.306 C 266.472 265.045 266.000 262.826 266.015 247.559 C 266.024 239.276 266.361 231.990 266.765 231.366 C 267.169 230.742 268.400 230.007 269.500 229.732 C 270.600 229.457 268.125 229.225 264.000 229.216 C 259.487 229.206 257.496 229.476 259.000 229.895 "/></g>
<g fill="#000000FF" stroke="#000000FF">
<path d="M 169.000 229.895 L 171.500 230.590 171.500 248.000 L 171.500 265.410 169.000 266.105 C 167.475 266.529 169.426 266.809 174.000 266.821 C 178.125 266.833 180.825 266.601 180.000 266.306 C 176.472 265.045 176.000 262.826 176.015 247.559 C 176.024 239.276 176.361 231.990 176.765 231.366 C 177.169 230.742 178.400 230.007 179.500 229.732 C 180.600 229.457 178.125 229.225 174.000 229.216 C 169.487 229.206 167.496 229.476 169.000 229.895 "/></g>
<g fill="#000000FF" stroke="#000000FF">
<path d="M 233.583 73.866 C 233.284 74.349 235.056 75.514 237.520 76.455 C 242.798 78.470 243.292 79.948 238.750 80.132 L 235.500 80.263 239.000 81.000 C 240.925 81.405 241.825 81.884 241.000 82.063 C 240.175 82.243 240.646 82.444 242.046 82.510 C 243.446 82.576 245.023 82.896 245.551 83.222 C 246.078 83.548 248.758 83.245 251.505 82.547 C 258.154 80.859 269.464 80.633 277.195 82.035 C 284.961 83.444 286.380 84.266 282.500 85.110 C 280.399 85.568 281.523 85.799 286.250 85.882 C 290.004 85.947 293.000 86.444 293.000 87.000 C 293.000 87.550 292.438 88.054 291.750 88.119 C 291.063 88.185 292.802 88.297 295.615 88.369 C 299.550 88.470 300.358 88.254 299.115 87.434 C 296.793 85.901 287.849 83.205 277.832 81.017 C 273.065 79.976 267.215 78.162 264.832 76.984 L 260.500 74.844 263.500 77.386 C 267.014 80.364 267.518 80.285 253.515 78.957 C 244.905 78.140 241.622 77.383 238.328 75.452 C 236.016 74.097 233.881 73.384 233.583 73.866 "/></g>
<g fill="#000000FF" stroke="#000000FF">
<path d="M 251.262 363.226 C 249.928 364.887 243.933 379.267 244.386 379.719 C 244.577 379.911 245.913 377.577 247.354 374.534 C 248.795 371.490 250.430 369.000 250.987 369.000 C 251.544 369.000 252.026 368.213 252.058 367.250 C 252.089 366.288 253.250 367.975 254.637 371.000 C 258.895 380.285 256.383 388.771 247.653 394.592 C 243.488 397.369 235.532 399.295 237.672 397.008 C 238.316 396.320 238.623 395.182 238.354 394.479 C 238.084 393.777 239.123 390.794 240.663 387.851 C 242.202 384.908 243.448 382.050 243.432 381.500 C 243.416 380.950 241.831 383.650 239.910 387.500 C 234.979 397.380 233.288 399.683 228.305 403.307 L 223.913 406.500 228.723 403.839 C 231.369 402.375 236.506 400.217 240.140 399.043 C 250.976 395.542 258.000 387.942 258.000 379.718 C 258.000 376.975 253.799 363.474 252.558 362.226 C 252.408 362.075 251.825 362.525 251.262 363.226 "/></g>
<g fill="#000000FF" stroke="#000000FF">
<path d="M 259.000 416.257 C 249.731 420.903 237.892 421.961 222.000 419.564 C 220.075 419.274 221.754 419.863 225.732 420.873 C 229.710 421.884 235.723 424.013 239.095 425.605 C 244.396 428.108 244.670 428.162 241.121 426.000 C 238.863 424.625 237.012 423.141 237.008 422.701 C 237.003 422.262 239.363 422.135 242.250 422.420 C 245.138 422.704 250.313 423.221 253.750 423.567 C 258.005 423.995 260.000 423.846 260.000 423.098 C 260.000 422.494 261.275 422.000 262.833 422.000 C 264.392 422.000 265.995 421.671 266.397 421.270 C 266.799 420.868 265.411 420.634 263.314 420.751 C 260.323 420.917 259.932 420.766 261.500 420.051 C 263.251 419.254 263.127 419.129 260.500 419.048 L 257.500 418.956 260.000 417.054 C 264.606 413.552 264.525 413.488 259.000 416.257 "/></g>
<g fill="#000000FF" stroke="#000000FF">
<path d="M 178.000 390.598 C 182.125 392.016 190.131 393.703 195.791 394.347 C 203.986 395.279 205.830 395.770 204.841 396.759 C 204.159 397.441 202.880 398.000 202.000 398.000 C 201.120 398.000 199.892 398.508 199.271 399.129 C 197.416 400.984 182.304 399.712 176.750 397.233 C 174.138 396.067 172.000 395.500 172.000 395.975 C 172.000 396.885 182.413 400.481 187.500 401.328 C 190.691 401.859 210.803 399.530 211.821 398.512 C 212.153 398.180 210.460 398.223 208.059 398.607 C 202.381 399.515 203.320 397.761 209.671 395.597 C 214.848 393.832 215.979 394.111 213.893 396.638 C 213.127 397.566 212.950 398.105 213.500 397.835 C 214.050 397.566 215.963 396.719 217.750 395.953 C 219.538 395.188 221.000 394.279 221.000 393.933 C 221.000 393.588 214.138 393.314 205.750 393.326 C 193.144 393.343 189.200 392.976 183.000 391.212 C 171.617 387.971 169.663 387.732 178.000 390.598 "/></g>
<g fill="#000000FF" stroke="#000000FF">
<path d="M 391.500 380.921 C 398.837 381.860 406.768 385.006 407.344 387.207 C 407.736 388.705 406.359 389.778 400.300 392.693 C 393.599 395.917 391.855 396.326 384.469 396.408 C 377.499 396.485 375.714 396.162 373.334 394.392 C 371.775 393.233 370.500 391.688 370.500 390.959 C 370.500 390.230 373.961 387.814 378.191 385.591 C 382.420 383.367 385.724 381.391 385.533 381.199 C 384.694 380.360 370.729 388.484 369.324 390.628 C 368.468 391.934 366.358 393.451 364.634 393.998 L 361.500 394.993 364.768 394.518 C 366.752 394.229 370.089 394.859 373.268 396.122 C 381.710 399.477 390.257 398.474 402.603 392.680 C 408.039 390.128 412.599 387.694 412.737 387.270 C 413.215 385.798 395.434 379.995 390.889 380.141 L 386.500 380.282 391.500 380.921 "/></g>
<g fill="#000000FF" stroke="#000000FF">
<path d="M 169.029 118.802 C 164.441 125.011 160.746 130.854 159.231 134.297 C 157.742 137.681 157.604 144.000 159.019 144.000 C 159.601 144.000 159.775 142.950 159.424 141.553 C 159.086 140.207 159.373 137.395 160.061 135.303 C 161.675 130.399 165.984 123.872 167.138 124.586 C 167.630 124.889 167.731 125.627 167.362 126.224 C 166.990 126.824 167.151 127.025 167.721 126.673 C 169.163 125.781 171.136 133.545 170.854 139.000 C 170.726 141.475 170.988 146.305 171.438 149.733 C 172.144 155.123 172.027 156.052 170.570 156.611 C 168.183 157.528 161.774 152.091 160.306 147.905 C 159.259 144.918 159.106 144.806 159.056 146.990 C 159.015 148.803 160.806 151.183 165.640 155.740 C 169.293 159.183 172.668 162.000 173.140 162.000 C 174.266 162.000 174.230 161.144 172.649 150.500 C 171.914 145.550 171.523 139.760 171.779 137.634 C 172.056 135.344 171.509 131.600 170.438 128.449 C 168.678 123.270 168.681 123.010 170.565 118.617 L 172.500 114.105 169.029 118.802 "/></g>
<g fill="#000000FF" stroke="#000000FF">
<path d="M 169.500 399.169 C 171.700 400.314 176.513 403.669 180.197 406.625 C 186.910 412.013 188.768 413.082 187.367 410.750 C 186.857 409.901 187.158 409.940 188.308 410.872 C 189.239 411.627 190.000 411.934 190.000 411.554 C 190.000 411.175 191.238 411.736 192.750 412.801 C 194.263 413.867 197.459 415.731 199.854 416.943 C 202.249 418.155 207.199 421.779 210.854 424.997 L 217.500 430.846 212.500 425.461 C 209.750 422.499 204.913 418.702 201.750 417.023 C 196.078 414.013 194.827 412.558 197.224 411.759 C 197.898 411.534 196.222 410.790 193.500 410.104 C 190.778 409.419 186.065 407.466 183.026 405.765 C 179.987 404.064 175.250 401.404 172.500 399.854 C 169.750 398.304 167.050 397.048 166.500 397.062 C 165.950 397.077 167.300 398.025 169.500 399.169 "/></g>
<g fill="#000000FF" stroke="#000000FF">
<path d="M 89.897 350.500 C 89.623 354.350 89.008 358.361 88.530 359.414 C 87.907 360.785 87.992 361.123 88.830 360.605 C 89.474 360.207 90.022 360.021 90.049 360.191 C 90.075 360.361 90.452 364.904 90.886 370.288 C 91.726 380.705 92.847 383.237 95.778 381.340 C 98.378 379.656 97.711 374.351 94.474 370.973 C 91.926 368.313 91.723 367.408 91.080 355.822 C 90.439 344.282 90.364 343.944 89.897 350.500 M 95.541 374.444 C 97.671 379.542 95.467 383.609 93.035 379.066 C 91.688 376.548 91.698 371.000 93.051 371.000 C 93.629 371.000 94.750 372.550 95.541 374.444 "/></g>
<g fill="#000000FF" stroke="#000000FF">
<path d="M 227.166 34.564 C 221.609 42.953 223.214 51.497 231.759 59.019 C 236.556 63.242 240.090 65.310 246.448 67.618 L 250.397 69.051 248.324 66.776 C 247.185 65.524 245.226 61.350 243.972 57.500 C 242.718 53.650 240.973 49.494 240.096 48.265 C 238.539 46.086 238.531 46.098 239.738 48.765 C 243.138 56.272 245.139 65.000 243.460 65.000 C 241.556 65.000 234.850 60.493 231.308 56.833 C 224.918 50.228 223.495 44.537 226.461 37.439 C 227.747 34.361 228.239 34.022 230.563 34.605 C 233.165 35.258 233.183 35.228 231.768 32.526 L 230.331 29.785 227.166 34.564 "/></g>
<g fill="#000000FF" stroke="#000000FF">
<path d="M 101.565 361.500 C 101.959 362.600 102.854 365.584 103.553 368.130 C 104.253 370.677 105.534 374.133 106.401 375.809 C 108.201 379.289 111.803 380.936 113.083 378.865 C 114.632 376.359 112.863 372.521 108.072 368.000 C 105.450 365.525 102.752 362.600 102.077 361.500 L 100.849 359.500 101.565 361.500 M 110.474 371.319 C 112.547 374.484 112.864 378.500 111.040 378.500 C 109.079 378.500 105.000 372.298 105.000 369.317 C 105.000 367.240 105.260 367.069 107.000 368.000 C 108.100 368.589 109.663 370.082 110.474 371.319 "/></g>
<g fill="#000000FF" stroke="#000000FF">
<path d="M 206.059 432.272 C 212.416 438.447 220.111 447.101 223.158 451.502 C 229.896 461.236 231.601 462.861 232.383 460.303 C 233.048 458.129 232.757 456.592 230.809 452.000 C 229.992 450.075 228.572 446.475 227.654 444.000 C 226.735 441.525 224.377 437.700 222.415 435.500 C 219.061 431.740 219.000 431.713 221.391 435.051 C 224.765 439.763 229.228 449.963 228.615 451.562 C 228.346 452.262 228.773 453.083 229.563 453.386 C 230.353 453.689 231.000 454.659 231.000 455.542 C 231.000 458.933 227.431 456.242 222.320 448.997 C 217.917 442.756 196.658 420.996 195.000 421.032 C 194.725 421.038 199.701 426.096 206.059 432.272 "/></g>
<g fill="#000000FF" stroke="#000000FF">
<path d="M 329.359 345.250 C 329.697 348.138 330.240 354.775 330.567 360.000 C 330.894 365.225 331.857 371.549 332.707 374.053 C 334.219 378.506 334.190 378.742 331.377 384.826 L 328.500 391.045 331.884 385.773 C 333.746 382.873 336.297 379.150 337.554 377.500 C 339.349 375.144 339.403 374.929 337.807 376.500 L 335.776 378.500 336.275 376.325 C 336.618 374.828 336.373 374.304 335.488 374.643 C 333.316 375.476 332.769 373.243 331.833 359.717 C 330.845 345.439 331.326 343.507 335.275 345.896 C 336.725 346.773 336.299 345.980 334.054 343.621 C 332.158 341.629 330.189 340.000 329.677 340.000 C 329.142 340.000 329.007 342.236 329.359 345.250 "/></g>
<g fill="#000000FF" stroke="#000000FF">
<path d="M 389.355 123.518 C 388.358 126.114 390.967 130.649 396.178 135.375 C 398.930 137.872 400.873 139.146 400.496 138.207 C 400.120 137.268 399.240 134.344 398.542 131.709 C 396.620 124.460 390.938 119.393 389.355 123.518 "/></g>
<g fill="#000000FF" stroke="#000000FF">
<path d="M 295.500 414.792 C 290.888 416.804 287.649 417.452 281.500 417.594 C 277.100 417.695 274.063 417.828 274.750 417.889 C 277.565 418.139 275.736 419.915 272.250 420.317 C 270.188 420.554 271.650 420.498 275.500 420.192 C 279.350 419.887 285.650 419.600 289.500 419.555 C 293.350 419.511 296.376 419.054 296.224 418.541 C 296.072 418.028 297.173 417.444 298.671 417.243 C 300.169 417.043 302.093 416.476 302.947 415.983 C 303.965 415.396 303.121 415.267 300.500 415.609 L 296.500 416.131 300.500 414.147 C 306.362 411.238 302.505 411.736 295.500 414.792 "/></g>
<g fill="#000000FF" stroke="#000000FF">
<path d="M 145.250 130.064 C 139.886 136.132 138.361 139.790 140.363 141.792 C 141.158 142.586 142.308 142.928 142.918 142.550 C 144.901 141.325 148.000 134.165 148.008 130.790 C 148.013 128.980 148.350 126.995 148.758 126.378 C 149.166 125.761 147.587 127.420 145.250 130.064 "/></g>
<g fill="#000000FF" stroke="#000000FF">
<path d="M 111.000 104.721 C 109.625 104.968 108.107 105.546 107.628 106.007 C 107.148 106.468 108.498 106.440 110.628 105.946 C 112.757 105.452 116.652 105.037 119.282 105.024 C 124.631 104.997 131.483 107.410 130.513 108.979 C 130.166 109.541 130.653 110.000 131.596 110.000 C 134.742 110.000 130.526 113.448 122.409 117.513 C 115.630 120.908 114.357 121.218 109.203 120.730 C 105.730 120.401 104.282 120.517 105.500 121.025 C 109.997 122.901 115.616 122.035 122.907 118.341 C 129.585 114.959 135.370 110.310 135.182 108.477 C 135.139 108.053 132.735 106.873 129.840 105.854 C 124.912 104.118 117.008 103.643 111.000 104.721 "/></g>
<g fill="#000000FF" stroke="#000000FF">
<path d="M 366.108 327.000 C 366.045 329.629 366.542 331.805 369.997 344.000 C 371.166 348.125 372.432 353.241 372.811 355.368 L 373.500 359.237 377.398 351.646 C 380.791 345.039 381.334 343.047 381.582 336.278 L 381.867 328.500 381.070 336.049 C 380.258 343.732 376.970 353.000 375.056 353.000 C 374.475 353.000 374.000 352.325 374.000 351.500 C 374.000 350.675 373.599 350.000 373.109 350.000 C 372.298 350.000 371.323 346.552 367.453 330.000 C 366.746 326.975 366.141 325.625 366.108 327.000 "/></g>
<g fill="#000000FF" stroke="#000000FF">
<path d="M 405.667 120.667 C 404.156 122.177 405.167 127.045 407.589 129.923 C 410.914 133.875 412.000 133.808 412.000 129.649 C 412.000 122.691 408.544 117.790 405.667 120.667 M 410.364 124.772 C 410.855 126.486 410.941 128.700 410.554 129.694 C 409.907 131.356 409.698 131.312 407.926 129.139 C 405.139 125.723 405.482 120.327 408.423 121.308 C 408.999 121.500 409.872 123.059 410.364 124.772 "/></g>
<g fill="#000000FF" stroke="#000000FF">
<path d="M 198.455 34.257 C 197.704 36.214 199.418 39.898 202.973 43.962 L 206.000 47.424 205.985 42.962 C 205.977 40.508 205.403 37.375 204.710 36.000 C 203.304 33.211 199.286 32.092 198.455 34.257 M 204.030 37.592 C 205.536 42.154 203.933 44.396 201.697 40.857 C 200.878 39.561 199.906 37.488 199.537 36.250 C 198.998 34.446 199.259 34.000 200.855 34.000 C 202.252 34.000 203.198 35.070 204.030 37.592 "/></g>
<g fill="#000000FF" stroke="#000000FF">
<path d="M 214.667 47.667 C 213.126 49.207 214.274 51.517 218.750 55.881 C 221.363 58.429 224.322 61.636 225.326 63.007 L 227.152 65.500 225.497 62.664 C 224.586 61.104 223.189 57.633 222.393 54.951 C 220.754 49.434 216.712 45.622 214.667 47.667 M 220.307 53.065 C 221.043 55.882 218.548 55.486 216.573 52.472 C 214.493 49.297 215.487 47.226 218.000 49.500 C 218.990 50.396 220.028 52.000 220.307 53.065 "/></g>
<g fill="#000000FF" stroke="#000000FF">
<path d="M 306.000 436.500 C 304.625 437.286 302.600 437.975 301.500 438.030 C 300.400 438.086 301.957 438.792 304.960 439.599 C 312.973 441.753 319.665 439.734 315.350 436.465 C 312.979 434.669 309.179 434.683 306.000 436.500 "/></g>
<g fill="#000000FF" stroke="#000000FF">
<path d="M 187.441 62.500 C 185.520 63.985 185.520 64.015 187.441 65.500 C 190.036 67.505 193.278 67.391 197.465 65.147 L 200.923 63.293 197.095 62.147 C 191.998 60.619 189.769 60.701 187.441 62.500 M 195.478 62.913 C 197.411 63.668 197.406 63.712 195.293 64.843 C 192.669 66.248 190.982 66.286 189.000 64.985 C 187.667 64.109 187.667 63.891 189.000 63.015 C 190.751 61.866 192.718 61.835 195.478 62.913 "/></g>
<g fill="#000000FF" stroke="#000000FF">
<path d="M 279.662 445.000 C 280.819 451.145 285.063 455.815 287.898 454.063 C 289.703 452.948 286.852 447.588 283.229 445.283 C 281.728 444.328 280.163 443.086 279.751 442.523 C 279.340 441.960 279.299 443.075 279.662 445.000 "/></g>
<g fill="#000000FF" stroke="#000000FF">
<path d="M 91.116 336.143 C 91.031 341.009 91.376 342.930 92.406 343.325 C 93.179 343.622 94.119 345.267 94.496 346.980 C 95.004 349.296 95.496 349.834 96.410 349.075 C 97.303 348.334 98.670 349.142 101.404 352.027 C 105.195 356.027 108.000 357.145 108.000 354.655 C 108.000 353.245 104.905 350.000 103.560 350.000 C 103.130 350.000 103.841 350.861 105.139 351.914 C 106.438 352.967 107.165 354.164 106.756 354.574 C 105.811 355.523 102.000 352.134 102.000 350.345 C 102.000 349.605 101.372 349.000 100.604 349.000 C 97.806 349.000 93.162 342.288 92.504 337.292 C 91.461 329.374 91.237 329.189 91.116 336.143 "/></g>
<g fill="#000000FF" stroke="#000000FF">
<path d="M 250.500 92.145 C 245.424 93.327 242.572 95.442 243.343 97.452 C 244.373 100.134 248.609 99.255 251.540 95.750 C 253.034 93.963 254.987 92.194 255.879 91.820 C 258.268 90.819 255.474 90.987 250.500 92.145 M 251.000 94.300 C 251.000 96.325 248.835 98.000 246.217 98.000 C 243.262 98.000 243.730 95.973 247.079 94.265 C 250.178 92.684 251.000 92.691 251.000 94.300 "/></g>
<g fill="#000000FF" stroke="#000000FF">
<path d="M 126.250 148.572 C 124.463 152.061 123.019 155.272 123.042 155.708 C 123.065 156.144 123.852 155.060 124.792 153.300 C 126.678 149.766 128.385 149.066 128.551 151.758 C 128.610 152.716 128.735 153.136 128.829 152.691 C 129.252 150.690 130.935 153.439 131.932 157.759 C 133.657 165.238 136.054 172.804 135.651 169.500 C 135.450 167.850 134.252 162.900 132.988 158.500 C 131.725 154.100 130.424 148.639 130.096 146.364 L 129.500 142.228 126.250 148.572 "/></g>
<g fill="#000000FF" stroke="#000000FF">
<path d="M 121.715 158.332 C 120.416 161.660 120.937 172.977 122.532 176.061 C 124.194 179.276 135.771 188.260 137.152 187.406 C 137.618 187.118 137.947 185.221 137.882 183.191 C 137.766 179.571 137.751 179.558 137.110 182.500 C 136.670 184.522 136.198 185.087 135.660 184.234 C 135.221 183.537 134.460 183.216 133.968 183.520 C 132.442 184.463 125.141 179.173 123.446 175.896 C 122.260 173.601 121.914 170.636 122.133 164.640 C 122.297 160.163 122.109 157.324 121.715 158.332 "/></g>
<g fill="#000000FF" stroke="#000000FF">
<path d="M 239.500 402.981 C 238.400 403.450 235.108 406.347 232.185 409.417 C 229.262 412.488 226.112 415.036 225.185 415.079 C 224.258 415.122 223.994 415.362 224.599 415.612 C 226.376 416.346 231.000 414.175 231.000 412.606 C 231.000 410.838 236.988 407.000 239.746 407.000 C 242.106 407.000 244.454 404.543 243.527 403.044 C 242.776 401.829 242.218 401.820 239.500 402.981 "/></g>
<g fill="#000000FF" stroke="#000000FF">
<path d="M 134.750 326.376 C 132.815 327.560 119.926 329.682 117.750 329.175 C 117.338 329.079 117.000 329.459 117.000 330.019 C 117.000 330.580 118.013 330.830 119.250 330.577 C 126.874 329.013 129.287 329.020 133.784 330.617 C 139.503 332.648 144.000 331.943 144.000 329.016 C 144.000 327.039 140.343 324.324 139.208 325.459 C 138.867 325.800 139.580 326.339 140.794 326.656 C 142.007 326.974 143.000 327.847 143.000 328.598 C 143.000 330.555 138.923 331.302 135.461 329.980 L 132.500 328.849 134.750 327.425 C 135.988 326.641 137.000 325.775 137.000 325.500 C 137.000 325.225 135.988 325.619 134.750 326.376 "/></g>
<g fill="#000000FF" stroke="#000000FF">
<path d="M 377.177 156.750 C 377.355 157.713 379.511 159.514 381.969 160.754 C 384.428 161.993 388.687 165.143 391.435 167.754 L 396.432 172.500 391.466 166.914 C 388.735 163.842 385.224 159.904 383.665 158.164 C 380.546 154.683 376.637 153.831 377.177 156.750 "/></g>
<g fill="#000000FF" stroke="#000000FF">
<path d="M 293.760 382.137 C 282.953 390.967 281.994 392.220 282.184 397.271 L 282.315 400.771 286.408 399.357 C 288.658 398.579 291.625 397.011 293.000 395.872 L 295.500 393.802 292.000 395.798 C 287.380 398.432 283.000 398.438 283.000 395.809 C 283.000 392.538 284.771 390.272 291.772 384.586 C 295.472 381.581 299.625 378.010 301.000 376.650 C 302.375 375.291 299.117 377.760 293.760 382.137 "/></g>
<g fill="#000000FF" stroke="#000000FF">
<path d="M 156.000 415.443 C 156.000 415.686 156.866 417.374 157.925 419.193 C 158.984 421.012 161.068 426.325 162.555 431.000 C 166.168 442.358 166.763 443.441 168.570 441.942 C 170.091 440.679 170.598 437.512 169.134 438.417 C 167.595 439.368 165.058 435.508 162.899 428.931 C 160.140 420.526 156.000 412.432 156.000 415.443 "/></g>
<g fill="#000000FF" stroke="#000000FF">
<path d="M 273.750 86.689 C 272.788 86.941 272.000 87.829 272.000 88.663 C 272.000 90.882 268.019 93.836 264.000 94.597 C 259.955 95.364 257.767 96.815 258.607 98.173 C 258.929 98.694 259.741 98.369 260.412 97.451 C 261.100 96.510 262.475 95.981 263.566 96.239 C 265.306 96.650 265.250 96.804 263.000 97.784 C 260.638 98.813 260.621 98.877 262.677 98.937 C 263.875 98.971 265.696 97.930 266.725 96.623 C 267.753 95.315 270.738 92.390 273.358 90.123 C 277.846 86.239 277.918 85.600 273.750 86.689 "/></g>
<g fill="#000000FF" stroke="#000000FF">
<path d="M 135.483 397.500 C 134.330 402.029 132.029 406.136 131.001 405.501 C 130.499 405.190 130.341 404.275 130.651 403.468 C 130.960 402.661 130.716 402.000 130.107 402.000 C 129.498 402.000 129.000 401.250 129.000 400.333 C 129.000 399.417 128.754 398.913 128.453 399.214 C 127.645 400.022 130.205 413.000 131.173 413.000 C 131.628 413.000 132.000 412.086 132.000 410.970 C 132.000 409.853 133.148 406.211 134.552 402.876 C 135.956 399.541 136.911 396.292 136.675 395.656 C 136.440 395.020 135.903 395.850 135.483 397.500 "/></g>
<g fill="#000000FF" stroke="#000000FF">
<path d="M 346.578 370.250 C 345.771 371.488 345.139 374.448 345.174 376.828 C 345.243 381.512 345.004 381.672 349.322 374.040 C 352.189 368.974 349.676 365.503 346.578 370.250 M 349.965 370.750 C 349.945 371.163 349.303 372.625 348.537 374.000 C 347.308 376.207 347.065 376.294 346.460 374.737 C 346.084 373.768 346.332 372.305 347.011 371.487 C 348.316 369.915 350.024 369.488 349.965 370.750 "/></g>
<g fill="#000000FF" stroke="#000000FF">
<path d="M 154.116 126.313 C 151.676 130.260 151.624 133.500 154.000 133.500 C 156.282 133.500 158.303 128.410 157.263 125.288 L 156.382 122.646 154.116 126.313 "/></g>
<g fill="#000000FF" stroke="#000000FF">
<path d="M 386.186 179.742 C 380.890 180.041 379.924 180.373 380.195 181.799 C 380.712 184.529 385.484 184.422 390.236 181.575 C 392.581 180.169 394.050 179.101 393.500 179.202 C 392.950 179.303 389.659 179.546 386.186 179.742 M 387.000 182.000 C 387.000 182.550 385.875 183.000 384.500 183.000 C 383.125 183.000 382.000 182.550 382.000 182.000 C 382.000 181.450 383.125 181.000 384.500 181.000 C 385.875 181.000 387.000 181.450 387.000 182.000 "/></g>
<g fill="#000000FF" stroke="#000000FF">
<path d="M 415.607 124.582 C 414.804 126.674 414.954 132.024 415.881 134.386 C 416.470 135.887 416.944 135.273 418.196 131.386 C 419.239 128.147 419.459 125.910 418.849 124.750 C 417.706 122.575 416.403 122.507 415.607 124.582 M 418.000 127.500 C 418.000 128.875 417.550 130.000 417.000 130.000 C 416.450 130.000 416.000 128.875 416.000 127.500 C 416.000 126.125 416.450 125.000 417.000 125.000 C 417.550 125.000 418.000 126.125 418.000 127.500 "/></g>
<g fill="#000000FF" stroke="#000000FF">
<path d="M 97.250 110.593 C 93.263 112.518 90.000 114.432 90.000 114.846 C 90.000 115.578 95.769 118.000 97.512 118.000 C 97.991 118.000 97.509 117.339 96.441 116.532 C 94.591 115.132 94.640 115.057 97.500 114.913 L 100.500 114.763 97.500 114.078 C 94.508 113.394 94.516 113.384 100.500 110.244 C 108.617 105.986 106.271 106.237 97.250 110.593 "/></g>
<g fill="#000000FF" stroke="#000000FF">
<path d="M 371.000 90.452 C 371.000 91.865 370.042 95.059 368.872 97.549 C 367.701 100.040 366.970 102.303 367.247 102.580 C 367.523 102.857 368.513 101.176 369.445 98.846 C 370.694 95.725 371.368 94.977 372.004 96.007 C 372.479 96.776 372.675 97.717 372.439 98.098 C 372.204 98.480 372.680 100.076 373.499 101.646 C 374.318 103.216 374.990 105.138 374.994 105.917 C 374.997 106.696 375.250 107.083 375.556 106.777 C 375.862 106.471 375.412 103.519 374.556 100.216 C 373.700 96.914 373.000 93.065 373.000 91.665 C 373.000 90.264 372.550 88.840 372.000 88.500 C 371.432 88.149 371.000 88.993 371.000 90.452 "/></g>
<g fill="#000000FF" stroke="#000000FF">
<path d="M 206.500 413.882 L 203.500 414.528 208.000 416.215 C 214.683 418.722 218.000 419.371 218.000 418.175 C 218.000 417.602 219.238 416.945 220.750 416.716 C 222.263 416.487 220.463 416.232 216.750 416.150 C 210.566 416.013 208.142 414.916 211.250 413.662 C 213.011 412.952 210.225 413.081 206.500 413.882 "/></g>
<g fill="#000000FF" stroke="#000000FF">
<path d="M 308.000 372.379 L 304.500 373.415 307.478 373.458 C 309.443 373.486 310.569 374.070 310.787 375.175 C 311.405 378.305 307.005 384.931 301.459 389.222 C 298.419 391.575 296.735 393.219 297.717 392.876 C 301.624 391.511 309.831 382.945 311.262 378.738 C 313.308 372.727 312.453 371.059 308.000 372.379 "/></g>
<g fill="#000000FF" stroke="#000000FF">
<path d="M 365.669 314.664 C 365.301 315.032 365.064 317.396 365.142 319.917 L 365.284 324.500 365.892 320.500 C 366.263 318.056 366.804 316.969 367.282 317.706 C 367.712 318.370 368.690 318.672 369.455 318.379 C 370.255 318.072 373.005 319.926 375.923 322.739 C 378.715 325.430 381.000 327.257 381.000 326.799 C 381.000 325.644 371.870 317.000 370.650 317.000 C 370.104 317.000 368.911 316.324 367.998 315.498 C 367.085 314.672 366.037 314.297 365.669 314.664 "/></g>
<g fill="#000000FF" stroke="#000000FF">
<path d="M 296.890 458.000 C 296.700 463.519 297.073 465.373 298.748 467.250 C 300.632 469.361 303.855 469.541 304.608 467.578 C 305.184 466.077 303.193 461.473 302.338 462.329 C 302.063 462.604 302.344 463.774 302.962 464.929 C 303.870 466.625 303.780 467.147 302.495 467.640 C 300.430 468.433 298.073 465.322 298.032 461.750 C 297.999 458.945 298.651 458.437 300.587 459.758 C 301.185 460.166 300.625 459.150 299.342 457.500 L 297.010 454.500 296.890 458.000 "/></g>
<g fill="#000000FF" stroke="#000000FF">
<path d="M 357.536 362.732 C 355.948 365.069 355.000 367.851 355.000 370.173 C 355.000 372.213 354.550 374.160 354.000 374.500 C 353.450 374.840 353.000 375.531 353.000 376.037 C 353.000 377.240 360.382 369.139 361.858 366.316 C 362.486 365.114 362.982 363.539 362.961 362.816 C 362.939 362.092 362.326 362.850 361.597 364.500 C 360.869 366.150 359.312 368.357 358.137 369.405 C 356.022 371.290 356.000 371.286 356.000 369.023 C 356.000 365.709 359.926 359.758 361.671 360.427 C 362.467 360.733 362.832 360.538 362.493 359.989 C 361.401 358.222 360.119 358.931 357.536 362.732 "/></g>
<g fill="#000000FF" stroke="#000000FF">
<path d="M 414.085 319.195 C 413.379 321.718 410.146 328.192 406.901 333.582 C 403.655 338.972 401.010 344.084 401.022 344.941 C 401.034 345.798 401.873 344.700 402.886 342.500 C 403.899 340.300 406.372 336.025 408.382 333.000 C 412.193 327.266 416.331 317.493 415.722 315.667 C 415.528 315.085 414.792 316.673 414.085 319.195 "/></g>
<g fill="#000000FF" stroke="#000000FF">
<path d="M 84.738 369.623 C 82.588 375.620 82.540 377.886 84.543 378.655 C 86.812 379.525 87.620 378.178 85.693 376.740 C 84.602 375.926 84.238 374.728 84.632 373.250 C 85.466 370.128 86.976 370.432 87.116 373.750 C 87.180 375.263 87.408 375.825 87.624 375.000 C 87.839 374.175 87.672 371.530 87.251 369.123 L 86.487 364.746 84.738 369.623 "/></g>
<g fill="#000000FF" stroke="#000000FF">
<path d="M 245.804 413.529 C 245.463 413.871 244.364 414.270 243.363 414.417 C 241.769 414.651 241.827 414.837 243.820 415.904 C 246.802 417.500 251.500 416.947 251.500 415.000 C 251.500 413.495 247.000 412.333 245.804 413.529 "/></g>
<g fill="#000000FF" stroke="#000000FF">
<path d="M 311.059 450.868 C 310.969 452.956 318.692 460.207 320.606 459.830 C 321.530 459.649 322.784 458.682 323.393 457.683 C 324.312 456.173 323.992 455.454 321.500 453.438 C 319.850 452.102 317.600 451.018 316.500 451.027 C 315.269 451.037 316.163 451.799 318.826 453.007 C 321.900 454.402 323.055 455.478 322.815 456.724 C 322.017 460.864 316.271 457.986 312.309 451.461 C 311.560 450.228 311.096 450.008 311.059 450.868 "/></g>
<g fill="#000000FF" stroke="#000000FF">
<path d="M 394.795 328.581 C 391.064 335.067 388.902 340.057 388.546 343.000 L 388.002 347.500 389.322 342.408 C 390.048 339.608 392.731 333.695 395.284 329.269 C 397.837 324.842 400.055 320.645 400.213 319.941 C 400.371 319.238 397.933 323.125 394.795 328.581 "/></g>
<g fill="#000000FF" stroke="#000000FF">
<path d="M 179.667 42.667 C 177.264 45.070 180.570 49.468 185.500 50.428 L 188.500 51.012 185.500 49.872 C 181.351 48.295 180.000 47.068 180.000 44.878 C 180.000 42.006 183.707 42.553 187.077 45.923 C 188.685 47.531 190.000 49.508 190.000 50.316 C 190.000 51.125 190.645 52.033 191.432 52.336 C 193.549 53.148 189.408 46.466 186.261 43.990 C 183.718 41.990 180.907 41.426 179.667 42.667 "/></g>
<g fill="#000000FF" stroke="#000000FF">
<path d="M 251.446 86.087 C 249.996 88.434 252.818 89.372 257.218 88.007 C 261.233 86.761 261.344 86.633 259.000 85.939 C 255.210 84.818 252.194 84.877 251.446 86.087 M 256.500 87.000 C 256.160 87.550 255.009 88.000 253.941 88.000 C 252.873 88.000 252.000 87.550 252.000 87.000 C 252.000 86.450 253.152 86.000 254.559 86.000 C 256.010 86.000 256.851 86.433 256.500 87.000 "/></g>
<g fill="#000000FF" stroke="#000000FF">
<path d="M 253.580 403.790 L 250.660 405.500 254.229 404.316 C 260.057 402.383 261.012 405.073 255.441 407.730 C 252.585 409.091 251.723 409.170 251.080 408.130 C 250.462 407.129 250.128 407.225 249.619 408.550 C 249.048 410.039 249.447 410.189 252.604 409.677 C 258.427 408.732 262.254 404.079 258.418 402.607 C 256.513 401.876 257.089 401.735 253.580 403.790 "/></g>
<g fill="#000000FF" stroke="#000000FF">
<path d="M 411.523 139.000 C 411.776 142.025 412.043 146.300 412.116 148.500 L 412.250 152.500 412.942 148.500 C 413.323 146.300 413.971 143.375 414.383 142.000 C 414.920 140.206 414.850 139.909 414.134 140.948 C 413.329 142.118 413.036 141.926 412.608 139.948 C 411.332 134.054 411.092 133.844 411.523 139.000 "/></g>
<g fill="#000000FF" stroke="#000000FF">
<path d="M 155.750 72.162 C 152.583 73.319 152.251 75.015 154.750 77.266 C 157.771 79.987 159.234 79.631 156.505 76.839 C 153.498 73.761 154.027 73.169 160.800 72.028 C 164.913 71.334 165.063 71.230 162.000 71.197 C 160.075 71.175 157.263 71.610 155.750 72.162 "/></g>
<g fill="#000000FF" stroke="#000000FF">
<path d="M 311.335 420.954 L 308.170 422.663 312.285 425.332 C 314.549 426.799 317.098 427.982 317.950 427.961 C 318.803 427.939 318.092 427.309 316.370 426.560 C 312.115 424.708 311.562 423.438 313.964 421.036 C 316.364 418.636 315.668 418.614 311.335 420.954 "/></g>
<g fill="#000000FF" stroke="#000000FF">
<path d="M 342.837 359.207 C 343.040 363.460 342.646 367.614 341.837 369.742 L 340.500 373.255 342.250 370.177 C 344.045 367.020 344.809 353.622 343.250 352.651 C 342.838 352.394 342.651 355.344 342.837 359.207 "/></g>
<g fill="#000000FF" stroke="#000000FF">
<path d="M 100.632 157.294 C 99.721 159.680 97.483 164.078 95.659 167.066 C 93.836 170.055 93.184 171.600 94.212 170.500 C 96.516 168.033 103.506 154.173 102.801 153.468 C 102.519 153.186 101.543 154.908 100.632 157.294 "/></g>
<g fill="#000000FF" stroke="#000000FF">
<path d="M 373.000 145.836 C 374.375 146.977 376.625 148.479 378.000 149.174 C 379.375 149.870 382.352 151.670 384.615 153.174 C 386.878 154.679 389.272 156.043 389.936 156.205 C 391.373 156.556 384.416 151.761 379.407 148.948 C 377.463 147.856 374.664 146.243 373.186 145.363 L 370.500 143.763 373.000 145.836 "/></g>
<g fill="#000000FF" stroke="#000000FF">
<path d="M 218.617 109.661 C 218.235 110.850 216.448 112.946 214.648 114.319 C 212.847 115.693 209.377 118.712 206.937 121.028 L 202.500 125.240 207.941 120.870 C 216.520 113.980 220.230 110.186 219.754 108.791 C 219.485 108.003 219.042 108.343 218.617 109.661 "/></g>
<g fill="#000000FF" stroke="#000000FF">
<path d="M 198.609 127.104 C 196.472 128.390 195.086 128.603 193.294 127.922 C 190.124 126.716 190.000 126.738 190.000 128.500 C 190.000 129.441 190.950 130.000 192.550 130.000 C 195.212 130.000 200.846 127.511 201.260 126.151 C 201.392 125.718 200.199 126.147 198.609 127.104 "/></g>
<g fill="#000000FF" stroke="#000000FF">
<path d="M 197.626 114.302 C 193.994 117.160 190.904 122.310 191.076 125.218 C 191.118 125.923 191.702 124.980 192.374 123.122 C 193.046 121.264 195.375 117.834 197.548 115.499 L 201.500 111.254 197.626 114.302 "/></g>
<g fill="#000000FF" stroke="#000000FF">
<path d="M 105.787 175.760 C 103.195 180.171 100.945 184.337 100.787 185.019 C 100.629 185.701 102.621 182.651 105.213 178.240 C 107.805 173.829 110.055 169.663 110.213 168.981 C 110.371 168.299 108.379 171.349 105.787 175.760 "/></g>
<g fill="#000000FF" stroke="#000000FF">
<path d="M 220.771 100.705 C 220.370 101.275 218.570 102.084 216.771 102.502 C 214.402 103.052 214.007 103.388 215.339 103.721 C 217.048 104.149 217.013 104.369 214.843 106.841 L 212.507 109.500 215.573 106.736 C 217.259 105.216 218.852 104.186 219.114 104.447 C 219.375 104.708 220.018 103.740 220.544 102.295 C 221.070 100.851 221.172 100.135 220.771 100.705 "/></g>
<g fill="#000000FF" stroke="#000000FF">
<path d="M 342.047 78.360 C 341.971 79.754 347.869 90.367 349.916 92.520 C 351.191 93.861 351.020 93.269 349.386 90.686 C 348.059 88.588 345.875 84.763 344.533 82.186 C 343.191 79.609 342.072 77.887 342.047 78.360 "/></g>
<g fill="#000000FF" stroke="#000000FF">
<path d="M 354.401 100.500 C 355.745 103.250 357.154 106.742 357.533 108.259 C 357.912 109.777 358.611 111.259 359.086 111.553 C 360.466 112.406 355.877 100.478 353.821 97.867 C 352.464 96.144 352.622 96.861 354.401 100.500 "/></g>
<g fill="#000000FF" stroke="#000000FF">
<path d="M 206.368 61.223 C 207.411 62.897 213.876 65.457 214.780 64.553 C 214.996 64.337 212.937 63.090 210.204 61.783 C 205.876 59.711 205.382 59.639 206.368 61.223 "/></g>
<g fill="#000000FF" stroke="#000000FF">
<path d="M 344.772 423.092 C 345.438 423.968 345.728 424.939 345.416 425.251 C 345.104 425.562 345.896 426.156 347.175 426.570 C 349.474 427.314 349.467 427.336 346.500 428.616 C 344.850 429.328 344.201 429.930 345.059 429.955 C 346.714 430.003 350.842 427.393 349.998 426.832 C 349.724 426.649 348.164 425.375 346.530 424.000 C 344.897 422.625 344.106 422.216 344.772 423.092 "/></g>
<g fill="#000000FF" stroke="#000000FF">
<path d="M 234.500 413.000 C 231.711 413.710 231.676 413.773 234.000 413.895 C 235.375 413.968 237.438 414.279 238.583 414.587 C 240.049 414.980 240.667 414.679 240.667 413.573 C 240.667 411.899 239.319 411.774 234.500 413.000 "/></g>
<g fill="#000000FF" stroke="#000000FF">
<path d="M 89.325 178.607 C 88.130 181.309 87.005 184.815 86.825 186.398 C 86.646 187.981 87.529 186.401 88.786 182.888 C 91.789 174.493 92.045 172.462 89.325 178.607 "/></g>
<g fill="#000000FF" stroke="#000000FF">
<path d="M 262.350 87.757 C 262.714 88.347 262.447 89.080 261.756 89.386 C 261.065 89.692 262.750 89.673 265.500 89.343 C 270.994 88.685 272.698 88.008 268.917 87.986 C 267.588 87.979 265.417 87.683 264.094 87.329 C 262.503 86.903 261.912 87.049 262.350 87.757 "/></g>
<g fill="#000000FF" stroke="#000000FF">
<path d="M 186.630 75.440 C 190.610 77.172 191.506 78.646 189.884 80.794 C 188.793 82.239 188.811 82.309 189.998 81.250 C 190.769 80.563 192.548 79.948 193.950 79.884 C 196.041 79.789 196.140 79.677 194.500 79.263 C 193.400 78.985 191.228 77.687 189.673 76.379 C 188.119 75.070 186.094 74.018 185.173 74.039 C 184.253 74.061 184.908 74.691 186.630 75.440 "/></g>
<g fill="#000000FF" stroke="#000000FF">
<path d="M 267.100 428.480 C 268.970 430.342 270.101 431.172 269.614 430.326 C 269.050 429.345 269.150 428.525 269.889 428.068 C 270.582 427.640 269.568 426.896 267.375 426.223 L 263.700 425.095 267.100 428.480 "/></g>
<g fill="#000000FF" stroke="#000000FF">
<path d="M 289.500 438.211 C 292.787 440.605 295.000 441.111 295.000 439.469 C 295.000 438.661 294.137 438.000 293.082 438.000 C 292.027 438.000 290.339 437.720 289.332 437.377 C 287.750 436.839 287.772 436.952 289.500 438.211 "/></g>
<g fill="#000000FF" stroke="#000000FF">
<path d="M 191.462 416.648 L 195.218 420.500 193.274 417.000 C 192.204 415.075 190.514 413.342 189.518 413.148 C 188.265 412.905 188.864 413.984 191.462 416.648 "/></g>
<g fill="#000000FF" stroke="#000000FF">
<path d="M 282.681 435.266 C 284.524 437.379 286.035 438.405 286.273 437.706 C 286.498 437.043 285.067 435.402 283.091 434.059 L 279.500 431.619 282.681 435.266 "/></g>
<g fill="#000000FF" stroke="#000000FF">
<path d="M 149.000 404.420 C 149.000 404.816 150.463 407.207 152.250 409.734 C 154.038 412.261 155.385 413.798 155.245 413.148 C 154.932 411.704 149.000 403.412 149.000 404.420 "/></g>
<g fill="#000000FF" stroke="#000000FF">
<path d="M 343.083 385.191 L 341.974 388.373 344.511 385.990 C 346.557 384.068 346.772 383.452 345.620 382.807 C 344.579 382.225 343.892 382.870 343.083 385.191 "/></g>
<g fill="#000000FF" stroke="#000000FF">
<path d="M 107.250 146.571 C 104.913 148.585 103.000 150.632 103.000 151.121 C 103.000 151.609 104.913 149.962 107.250 147.459 L 111.500 142.909 107.250 146.571 "/></g>
<g fill="#000000FF" stroke="#000000FF">
<path d="M 401.015 141.090 C 401.007 141.415 402.342 144.115 403.982 147.090 C 407.264 153.044 408.178 153.148 405.039 147.210 C 402.724 142.832 401.037 140.265 401.015 141.090 "/></g>
<g fill="#000000FF" stroke="#000000FF">
<path d="M 311.500 109.057 C 316.566 110.105 320.659 110.058 316.500 109.000 C 314.850 108.580 312.150 108.235 310.500 108.233 C 307.978 108.231 308.137 108.362 311.500 109.057 "/></g>
<g fill="#000000FF" stroke="#000000FF">
<path d="M 207.746 107.362 C 205.132 109.088 204.267 109.908 205.824 109.184 C 207.382 108.461 209.521 107.048 210.578 106.046 C 211.635 105.044 210.361 105.636 207.746 107.362 "/></g>
<g fill="#000000FF" stroke="#000000FF">
<path d="M 290.078 444.679 C 292.510 447.528 294.094 449.012 293.597 447.977 C 293.100 446.942 291.110 444.612 289.175 442.798 C 286.275 440.081 286.434 440.412 290.078 444.679 "/></g>
<g fill="#000000FF" stroke="#000000FF">
<path d="M 157.620 116.941 C 155.150 119.463 155.033 119.804 156.803 119.341 C 157.938 119.045 159.234 117.722 159.683 116.402 C 160.458 114.124 160.352 114.152 157.620 116.941 "/></g>
<g fill="#000000FF" stroke="#000000FF">
<path d="M 326.500 112.387 C 328.150 113.138 330.625 114.029 332.000 114.366 C 334.008 114.859 333.909 114.710 331.500 113.613 C 329.850 112.862 327.375 111.971 326.000 111.634 C 323.992 111.141 324.091 111.290 326.500 112.387 "/></g>
<g fill="#000000FF" stroke="#000000FF">
<path d="M 176.806 106.916 C 175.324 108.977 173.974 111.221 173.806 111.903 C 173.638 112.585 174.850 111.198 176.500 108.821 C 178.150 106.445 179.500 104.200 179.500 103.834 C 179.500 103.468 178.288 104.855 176.806 106.916 "/></g>
<g fill="#000000FF" stroke="#000000FF">
<path d="M 254.164 71.465 C 256.159 72.821 258.385 74.059 259.109 74.215 C 259.834 74.372 258.540 73.263 256.233 71.750 C 253.927 70.238 251.701 69.000 251.288 69.000 C 250.874 69.000 252.168 70.109 254.164 71.465 "/></g>
<g fill="#000000FF" stroke="#000000FF">
<path d="M 216.704 64.629 C 216.323 65.011 217.696 66.432 219.755 67.788 L 223.500 70.254 220.449 67.095 C 218.771 65.358 217.085 64.248 216.704 64.629 "/></g>
<g fill="#000000FF" stroke="#000000FF">
<path d="M 163.500 385.979 C 165.150 386.404 167.400 387.064 168.500 387.445 C 169.828 387.905 169.660 387.623 168.000 386.605 C 166.625 385.761 164.375 385.101 163.000 385.138 C 160.713 385.199 160.756 385.271 163.500 385.979 "/></g>
<g fill="#000000FF" stroke="#000000FF">
<path d="M 233.310 38.500 C 234.155 40.150 235.596 42.400 236.510 43.500 C 237.424 44.600 237.161 43.700 235.926 41.500 C 233.201 36.646 231.159 34.306 233.310 38.500 "/></g>
<g fill="#000000FF" stroke="#000000FF">
<path d="M 124.070 385.083 C 124.109 386.413 124.548 388.400 125.047 389.500 C 125.678 390.894 125.768 390.288 125.344 387.500 C 124.637 382.857 123.969 381.589 124.070 385.083 "/></g>
<g fill="#000000FF" stroke="#000000FF">
<path d="M 336.000 420.000 C 339.419 421.095 342.048 421.095 339.500 420.000 C 338.400 419.527 336.600 419.154 335.500 419.170 C 333.892 419.194 333.990 419.356 336.000 420.000 "/></g>
<g fill="#000000FF" stroke="#000000FF">
<path d="M 112.452 163.539 C 111.604 167.240 111.627 167.309 112.805 164.599 C 113.498 163.003 113.907 161.220 113.712 160.637 C 113.518 160.054 112.951 161.360 112.452 163.539 "/></g>
<g fill="#000000FF" stroke="#000000FF">
<path d="M 366.327 141.818 C 370.051 143.454 370.072 143.453 367.127 141.750 C 365.462 140.788 363.739 140.030 363.300 140.068 C 362.860 140.105 364.222 140.892 366.327 141.818 "/></g>
<g fill="#000000FF" stroke="#000000FF">
<path d="M 376.170 109.000 C 376.186 109.825 376.560 111.625 377.000 113.000 C 377.644 115.010 377.806 115.108 377.830 113.500 C 377.846 112.400 377.473 110.600 377.000 109.500 C 376.473 108.275 376.152 108.081 376.170 109.000 "/></g>
<g fill="#000000FF" stroke="#000000FF">
<path d="M 366.170 105.500 C 366.154 106.600 366.527 108.400 367.000 109.500 C 368.095 112.048 368.095 109.419 367.000 106.000 C 366.356 103.990 366.194 103.892 366.170 105.500 "/></g>
</svg>
